<!DOCTYPE svg PUBLIC "-//W3C//DTD SVG 1.1//EN" "http://www.w3.org/Graphics/SVG/1.1/DTD/svg11.dtd">
<!-- Uploaded to: SVG Repo, www.svgrepo.com, Transformed by: SVG Repo Mixer Tools -->
<svg fill="#000000" height="256px" width="256px" version="1.1" id="Layer_1" xmlns="http://www.w3.org/2000/svg" xmlns:xlink="http://www.w3.org/1999/xlink" viewBox="-56.32 -56.32 624.64 624.64" xml:space="preserve" stroke="#000000" stroke-width="7.168000000000001">
<g id="SVGRepo_bgCarrier" stroke-width="0"/>
<g id="SVGRepo_tracerCarrier" stroke-linecap="round" stroke-linejoin="round"/>
<g id="SVGRepo_iconCarrier"> <g> <g> <path d="M490.75,469.3h-42.7V128c0-70.6-57.4-128-128-128h-42.7c-63.3,0-115.8,46.2-126,106.7h-23.3c-11.8,0-21.3,9.6-21.3,21.3 v42.7c0,6.8,1.4,13.2,3.3,19.3c-28.4,19.6-46,51.8-46,87.3v64h-21.3c-23.5,0-42.7,19.2-42.7,42.7v64c0,23.5,19.2,42.7,42.7,42.7 h21.3c0,11.8,9.6,21.3,21.3,21.3h170.7c11.8,0,21.3-9.6,21.3-21.3h21.3c23.5,0,42.7-19.1,42.7-42.7v-64 c0-23.5-19.1-42.7-42.7-42.7h-21.3v-64c0-35.5-17.6-67.7-46-87.3c2-6.1,3.3-12.6,3.3-19.3V128c0-11.8-9.5-21.3-21.3-21.3h-18.3 c9.6-36.7,42.7-64,82.3-64h42.7c47.1,0,85.3,38.3,85.3,85.3v341.3h-42.7c-11.8,0-21.3,9.6-21.3,21.3c0,11.7,9.6,21.3,21.3,21.3 h128c11.8,0,21.3-9.6,21.3-21.3C511.95,478.9,502.55,469.3,490.75,469.3z M64.05,448h-21.3v-64h21.3V448z M277.35,384h21.3v64 h-21.3V384z M192.05,170.7c0,5.4-2.2,10.3-5.5,14.1c-0.5,0.5-1,1.1-1.7,1.7c-1.5,1.3-3.1,2.4-4.9,3.3c-0.6,0.3-1.2,0.5-1.9,0.8 c-2.3,0.8-4.7,1.5-7.3,1.5c-2.6,0-5-0.6-7.3-1.5c-0.6-0.3-1.3-0.5-1.9-0.8c-1.8-0.9-3.4-2-4.9-3.3c-0.7-0.6-1.2-1.2-1.7-1.7 c-3.3-3.8-5.6-8.6-5.6-14.1v-21.3h42.7V170.7z"/> </g> </g> </g>
</svg>